<svg width="62" height="57" viewBox="0 0 62 57" fill="none" xmlns="http://www.w3.org/2000/svg">
<path fill-rule="evenodd" clip-rule="evenodd" d="M15.2714 7.27195V27.3113C15.2714 30.8258 18.1154 33.6748 21.6236 33.6748H43.2054C44.1217 33.6748 45.0004 34.0394 45.6483 34.6885L52.4963 41.5487C54.1813 43.2366 57.0622 42.0412 57.0622 39.6541V33.6748C59.7703 33.6748 61.9657 31.4756 61.9657 28.7626V6.2077C61.9657 3.03439 59.3977 0.461914 56.23 0.461914H22.0694C18.3149 0.461914 15.2714 3.51087 15.2714 7.27195ZM35.6653 26.8648V24.7436C35.6653 24.2504 36.0645 23.8505 36.5568 23.8505H39.6772C40.1696 23.8505 40.5688 24.2504 40.5688 24.7436V26.8648C40.5688 27.358 40.1696 27.7579 39.6772 27.7579H36.5568C36.0645 27.7579 35.6653 27.358 35.6653 26.8648ZM35.791 21.6373C35.7485 20.4504 36.093 18.4793 38.1728 16.9288C41.152 14.7078 41.7946 12.2958 40.3459 10.9003C38.8971 9.50472 37.2255 10.3979 36.3897 11.7934C35.8882 12.9098 35.2195 12.854 32.9907 12.6307C30.2046 12.3516 31.9877 9.22599 33.2693 8.05351C34.5509 6.88108 39.2315 4.59255 43.8006 8.05353C47.6252 10.9506 45.6407 16.3532 43.2991 17.8779C41.3815 19.1264 40.66 20.5404 40.4249 21.6219C40.364 21.9021 40.1279 22.1201 39.8416 22.1201H36.317C36.0391 22.1201 35.801 21.9154 35.791 21.6373Z" fill="#FFFFF9"/>
<path d="M0.226685 21.2828V42.5373C0.226685 44.7284 1.48179 46.7251 3.45426 47.672L3.99376 47.9309C4.96066 48.3951 5.57591 49.3738 5.57591 50.4479V54.743C5.57591 56.7322 7.97669 57.7284 9.38078 56.3219L15.3802 50.3118C16.4879 49.2021 17.9902 48.5787 19.5567 48.5787H41.0167C42.9322 48.5787 44.688 47.5089 45.5688 45.8049L46.3969 44.203C46.9657 43.1027 46.7072 41.7553 45.7718 40.9446L42.9606 38.5081C42.7441 38.3204 42.4076 38.4745 42.4076 38.7614V42.1594C42.4076 43.3309 41.4596 44.2806 40.2901 44.2806H16.2632C15.627 44.2806 15.0158 44.5283 14.5585 44.9714L10.145 49.2486V44.0015H6.74605C5.69974 44.0015 4.85153 43.1518 4.85153 42.1036V21.6735C4.85153 20.4404 5.84942 19.4407 7.08038 19.4407H10.758V15.1426H6.356C2.97087 15.1426 0.226685 17.8916 0.226685 21.2828Z" fill="#FFFFF9"/>
</svg>
