<svg width="86" height="56" viewBox="0 0 86 56" fill="none" xmlns="http://www.w3.org/2000/svg">
<path d="M79.4912 27.9656C74.6526 20.453 68.5885 14.8346 61.2988 11.1102C63.2407 14.4208 64.2115 18.0019 64.2115 21.8538C64.2115 27.743 62.1186 32.7806 57.9326 36.9664C53.7465 41.1522 48.7089 43.2453 42.82 43.2453C36.9311 43.2453 31.8935 41.1524 27.7075 36.9664C23.5215 32.7803 21.4286 27.7427 21.4286 21.8538C21.4286 18.0021 22.3994 14.4208 24.3412 11.1102C17.0515 14.8346 10.9874 20.453 6.14884 27.9656C10.3826 34.4912 15.6907 39.688 22.0732 43.5558C28.4557 47.4236 35.3713 49.3573 42.8202 49.3573C50.2692 49.3573 57.1848 47.4234 63.5673 43.5558C69.9494 39.688 75.2575 34.4912 79.4912 27.9656ZM45.1117 9.62988C45.1117 8.9932 44.8888 8.45213 44.4432 8.00647C43.9975 7.56081 43.4565 7.33799 42.8198 7.33799C38.8407 7.33799 35.4267 8.76265 32.5777 11.6115C29.7286 14.4603 28.3042 17.8745 28.3042 21.8536C28.3042 22.4903 28.527 23.0314 28.9727 23.477C29.4183 23.9227 29.9594 24.1455 30.5961 24.1455C31.2328 24.1455 31.7738 23.9227 32.2195 23.477C32.6651 23.0314 32.888 22.4901 32.888 21.8536C32.888 19.1161 33.8588 16.7763 35.8006 14.8344C37.7425 12.8926 40.082 11.9217 42.8198 11.9217C43.4565 11.9217 43.9975 11.6989 44.4432 11.2533C44.8888 10.8076 45.1117 10.2666 45.1117 9.62988ZM85.6032 27.9656C85.6032 29.0479 85.2849 30.1461 84.6482 31.2603C80.1917 38.5818 74.1992 44.4471 66.6708 48.856C59.1423 53.2648 51.1921 55.4692 42.82 55.4692C34.448 55.4692 26.4977 53.2569 18.9693 48.8321C11.4408 44.4074 5.44833 38.55 0.991779 31.2603C0.355096 30.1461 0.0368652 29.0479 0.0368652 27.9656C0.0368652 26.8832 0.355096 25.785 0.991779 24.6709C5.44833 17.3812 11.4408 11.524 18.9693 7.09906C26.4977 2.67431 34.448 0.461914 42.82 0.461914C51.1921 0.461914 59.1423 2.67431 66.6708 7.09906C74.1992 11.5238 80.1917 17.3812 84.6482 24.6709C85.2847 25.785 85.6032 26.8832 85.6032 27.9656Z" fill="#FFFFF9"/>
</svg>
