<svg width="82" height="57" viewBox="0 0 82 57" fill="none" xmlns="http://www.w3.org/2000/svg">
<path fill-rule="evenodd" clip-rule="evenodd" d="M21.5354 6.04989V8.60439H4.14242C1.93924 8.60439 0.153198 10.3914 0.153198 12.5958V47.3211L13.7166 20.2593C14.6474 18.4765 18.1526 14.9108 24.7268 14.9108H64.5392V12.5958C64.5392 10.3914 62.7532 8.60439 60.55 8.60439H43.2368V6.04989C43.2368 2.96374 40.7363 0.461914 37.6519 0.461914H27.1203C24.0359 0.461914 21.5354 2.96374 21.5354 6.04989ZM39.4869 8.60439H25.4449V6.12972C25.4449 5.07161 26.3022 4.21384 27.3597 4.21384H37.5721C38.6296 4.21384 39.4869 5.07161 39.4869 6.12972V8.60439Z" fill="#FFFFF9"/>
<path d="M60.5952 56.9803C62.819 56.9803 64.8541 55.7301 65.8603 53.746L81.6043 22.7C82.4123 21.1069 81.2554 19.2215 79.4699 19.2215H22.3953C20.1572 19.2215 18.1116 20.4877 17.1124 22.4915L1.64126 53.5163C0.847265 55.1085 2.00458 56.9803 3.783 56.9803H60.5952Z" fill="#FFFFF9"/>
</svg>
