<svg width="316" height="39" viewBox="0 0 316 39" fill="none" xmlns="http://www.w3.org/2000/svg">
<path d="M19.1978 8.57459V0H0V38.727H19.1978V30.1316H9.98285V8.57459H19.1978Z" fill="#FFFFF9"/>
<path d="M296.802 30.1524V38.727H316V0H296.802V8.59544H306.017V30.1524H296.802Z" fill="#FFFFF9"/>
<path d="M228.714 15.2603H196.768V23.9646H228.714V15.2603Z" fill="#FFFFF9"/>
<path d="M136.617 25.0584V4.84094H125.385V25.0584V34.3931H136.617H159.376V25.0584H136.617Z" fill="#FFFFF9"/>
<path d="M108.854 4.89221H95.3446L79.6892 34.3934H92.5266L94.8258 29.3854H109.364L111.624 34.3934H124.436L108.856 4.89221H108.854ZM98.0871 22.1874L102.061 13.483L106.011 22.1874H98.0871Z" fill="#FFFFF9"/>
<path d="M69.7728 17.1147H81.4538C81.4538 17.1147 81.7829 8.5146 71.8046 5.47641C61.824 2.43823 41.7806 3.36521 41.7806 17.3557V20.4982C41.7806 20.4982 41.383 25.6916 44.4546 29.3995C47.2086 32.7227 52.4034 35.1422 62.128 35.1422C74.3163 35.1422 81.4538 29.9928 81.4538 22.1899H69.6951C69.6951 22.1899 69.0598 25.0728 65.0054 25.4784C55.7287 26.4054 53.0868 24.1482 53.0868 19.6013C53.0868 15.6245 55.3265 14.0973 58.437 13.7196C63.5153 13.1008 68.7558 13.7706 69.7705 17.1193L69.7728 17.1147Z" fill="#FFFFF9"/>
<path d="M151.854 4.89221H165.398L173.829 15.4482L182.464 4.89221H195.804L179.55 24.3079V34.3934H168.209V24.3403L151.854 4.89221Z" fill="#FFFFF9"/>
<path d="M229.59 4.89221H243.746L251.873 13.4065L260.16 5.00345H274.27L259.136 19.6428L274.27 34.3934H259.998L251.998 25.7655L243.849 34.3934H229.59L244.813 19.6428L229.59 4.89221Z" fill="#FFFFF9"/>
</svg>
