<svg width="203" height="38" viewBox="0 0 203 38" fill="none" xmlns="http://www.w3.org/2000/svg">
<path d="M18.4209 0.321167C8.24756 0.321167 0 8.68422 0 19C0 29.3158 8.24756 37.6788 18.4209 37.6788C28.5942 37.6788 36.8417 29.3158 36.8417 19C36.8417 8.68422 28.5942 0.321167 18.4209 0.321167ZM18.4209 35.0307C9.68921 35.0307 2.61153 27.8528 2.61153 19C2.61153 10.1471 9.68921 2.96819 18.4209 2.96819C27.1525 2.96819 34.2302 10.1461 34.2302 18.9989C34.2302 27.8518 27.1515 35.0296 18.4209 35.0296V35.0307Z" fill="#FFFFF9"/>
<path d="M6.44595 17.2712C6.44595 17.2712 6.89713 18.1754 7.59566 17.5866C8.04578 17.2076 8.33559 16.5575 9.1095 15.96C9.53095 15.6349 10.2083 15.4498 11.0554 15.3421C11.0554 15.3421 12.8601 15.1925 12.5406 15.7426C12.4005 15.9837 12.2348 16.044 12.083 16.3777C11.8866 16.8061 11.7083 17.6038 12.1754 18.5263C12.7104 19.5802 13.8506 20.0624 14.6489 19.9343C15.012 19.8762 15.2816 19.6663 15.4143 19.4984C15.7084 19.127 15.8698 18.8449 15.9143 19.1959C15.9589 19.5468 15.8315 20.8386 14.7784 21.732C13.7253 22.6255 11.8293 22.6255 10.7284 22.0862C9.62756 21.5469 9.13285 21.83 8.76235 22.7073C8.39186 23.5846 9.20292 24.2327 9.57342 24.4447C9.94391 24.6568 11.7062 25.5944 14.3113 24.7332C14.3113 24.7332 16.3093 23.9711 17.2987 21.8569C17.8868 20.6007 18.0397 19.2239 17.7605 17.9698C17.5704 17.1151 17.1044 16.0687 16.0481 14.918C14.8517 13.6144 12.8527 12.5692 10.3367 13.032C9.14347 13.2516 8.20183 13.8512 7.55107 14.4314C6.32917 15.5219 6.04785 16.8072 6.44701 17.269L6.44595 17.2712Z" fill="#FFFFF9"/>
<path d="M30.4456 17.2712C30.4456 17.2712 29.9944 18.1754 29.2959 17.5866C28.8457 17.2076 28.5559 16.5575 27.782 15.96C27.3606 15.6349 26.6833 15.4498 25.8361 15.3421C25.8361 15.3421 24.0314 15.1925 24.3509 15.7426C24.4911 15.9837 24.6567 16.044 24.8085 16.3777C25.0049 16.8061 25.1832 17.6038 24.7161 18.5263C24.1811 19.5802 23.0409 20.0624 22.2426 19.9343C21.8795 19.8762 21.6099 19.6663 21.4772 19.4984C21.1831 19.127 21.0218 18.8449 20.9772 19.1959C20.9326 19.5468 21.06 20.8386 22.1131 21.732C23.1662 22.6255 25.0622 22.6255 26.1631 22.0862C27.264 21.5469 27.7587 21.83 28.1292 22.7073C28.4997 23.5846 27.6886 24.2327 27.3181 24.4447C26.9476 24.6568 25.1854 25.5944 22.5802 24.7332C22.5802 24.7332 20.5823 23.9711 19.5928 21.8569C19.0047 20.6007 18.8519 19.2239 19.1311 17.9698C19.3211 17.1151 19.7871 16.0687 20.8434 14.918C22.0398 13.6144 24.0388 12.5692 26.5548 13.032C27.7481 13.2516 28.6897 13.8512 29.3405 14.4314C30.5624 15.5219 30.8437 16.8072 30.4445 17.269L30.4456 17.2712Z" fill="#FFFFF9"/>
<path d="M65.1342 14.0913V10.1083H56.2168V28.0971H65.1342V24.1045H60.8539V14.0913H65.1342Z" fill="#FFFFF9"/>
<path d="M194.082 24.1142V28.0971H203V10.1083H194.082V14.1009H198.363V24.1142H194.082Z" fill="#FFFFF9"/>
<path d="M162.455 17.1968H147.616V21.24H162.455V17.1968Z" fill="#FFFFF9"/>
<path d="M119.676 21.7482V12.3571H114.458V21.7482V26.0842H119.676H130.247V21.7482H119.676Z" fill="#FFFFF9"/>
<path d="M106.78 12.3807H100.505L93.2327 26.0841H99.1957L100.264 23.7579H107.016L108.066 26.0841H114.018L106.781 12.3807H106.78ZM101.779 20.4144L103.625 16.3712L105.459 20.4144H101.779Z" fill="#FFFFF9"/>
<path d="M88.6264 18.0581H94.0522C94.0522 18.0581 94.2051 14.0633 89.5701 12.6521C84.9341 11.2408 75.6239 11.6714 75.6239 18.17V19.6297C75.6239 19.6297 75.4392 22.0421 76.866 23.7644C78.1452 25.3081 80.5582 26.4319 85.0753 26.4319C90.7368 26.4319 94.0522 24.04 94.0522 20.4155H88.5903C88.5903 20.4155 88.2951 21.7546 86.4119 21.943C82.1028 22.3736 80.8756 21.3251 80.8756 19.2131C80.8756 17.3659 81.916 16.6565 83.3608 16.481C85.7197 16.1936 88.154 16.5047 88.6253 18.0602L88.6264 18.0581Z" fill="#FFFFF9"/>
<path d="M126.754 12.3807H133.045L136.961 17.284L140.972 12.3807H147.168L139.618 21.3994V26.0841H134.35V21.4144L126.754 12.3807Z" fill="#FFFFF9"/>
<path d="M162.862 12.3807H169.437L173.212 16.3357L177.062 12.4324H183.616L176.586 19.2324L183.616 26.0841H176.986L173.271 22.0765L169.485 26.0841H162.862L169.933 19.2324L162.862 12.3807Z" fill="#FFFFF9"/>
</svg>
