<svg preserveAspectRatio="none" width="233" height="43" viewBox="0 0 233 43" fill="none" xmlns="http://www.w3.org/2000/svg">
<path d="M12 2L12 0.5L10.5 0.5L10.5 2L12 2ZM10.9393 42.0607C11.5251 42.6465 12.4749 42.6465 13.0607 42.0607L22.6066 32.5147C23.1924 31.929 23.1924 30.9792 22.6066 30.3934C22.0208 29.8076 21.0711 29.8076 20.4853 30.3934L12 38.8787L3.51472 30.3934C2.92892 29.8076 1.97919 29.8076 1.3934 30.3934C0.807616 30.9792 0.807616 31.929 1.3934 32.5147L10.9393 42.0607ZM233 0.500004L12 0.5L12 3.5L233 3.5L233 0.500004ZM10.5 2L10.5 41L13.5 41L13.5 2L10.5 2Z" fill="#FFFFF9"/>
</svg>
