<?xml version="1.0" standalone="no"?>
<!DOCTYPE svg PUBLIC "-//W3C//DTD SVG 20010904//EN"
 "http://www.w3.org/TR/2001/REC-SVG-20010904/DTD/svg10.dtd">
<svg version="1.0" xmlns="http://www.w3.org/2000/svg"
 width="608.000000pt" height="608.000000pt" viewBox="0 0 608.000000 608.000000"
 preserveAspectRatio="xMidYMid meet">
<metadata>
Created by potrace 1.14, written by Peter Selinger 2001-2017
</metadata>
<g transform="translate(0.000000,608.000000) scale(0.100000,-0.100000)"
fill="#000000" stroke="none">
<path d="M2849 6025 c-2 -1 -38 -6 -79 -9 -80 -6 -127 -12 -175 -20 -16 -3
-50 -8 -75 -11 -24 -4 -47 -8 -50 -10 -3 -2 -24 -6 -48 -10 -23 -3 -90 -20
-149 -36 -60 -17 -113 -32 -120 -33 -7 -1 -16 -5 -19 -9 -4 -4 -14 -7 -22 -7
-30 0 -299 -113 -422 -178 -187 -97 -413 -246 -520 -342 -9 -8 -45 -40 -80
-70 -98 -84 -266 -258 -338 -349 -59 -76 -135 -179 -154 -209 -12 -20 -25 -39
-28 -42 -14 -12 -140 -234 -184 -323 -77 -160 -178 -426 -200 -528 -3 -13 -10
-42 -16 -64 -29 -116 -62 -305 -77 -445 -9 -90 -10 -504 -1 -575 4 -27 9 -72
12 -100 5 -47 11 -83 20 -131 2 -12 7 -39 10 -60 17 -101 110 -429 146 -509 5
-11 21 -49 35 -85 95 -230 269 -525 415 -703 297 -363 633 -633 1024 -822 115
-55 217 -98 281 -119 28 -9 57 -19 65 -23 8 -3 17 -7 20 -8 3 0 30 -8 60 -18
67 -20 244 -64 285 -71 17 -3 39 -7 51 -10 12 -2 45 -7 74 -11 29 -4 62 -9 74
-11 141 -28 635 -22 791 9 17 4 52 9 78 12 27 2 52 7 56 9 4 3 23 8 42 11 164
29 420 113 607 201 52 24 96 44 98 44 2 0 22 11 44 25 22 14 40 22 40 19 0 -4
8 0 18 8 9 8 51 34 92 58 41 24 105 65 142 92 37 26 72 48 77 48 5 0 11 3 13
8 2 4 23 23 48 42 25 19 50 39 57 45 6 5 33 28 60 50 66 55 279 268 333 334
120 145 245 323 322 459 54 96 158 314 173 362 4 14 11 30 15 35 4 6 13 26 18
45 6 19 18 55 27 80 9 25 19 52 21 60 2 8 15 56 29 105 26 92 52 203 61 265 3
19 7 42 9 50 2 8 7 40 11 70 3 30 8 69 10 85 22 167 22 498 -1 680 -3 22 -7
59 -10 83 -3 24 -10 66 -16 95 -5 29 -12 66 -15 82 -19 115 -90 352 -159 529
-36 96 -152 325 -213 425 -29 45 -52 87 -52 92 0 5 -4 9 -10 9 -5 0 -10 6 -10
14 0 8 -3 16 -8 18 -4 2 -29 34 -56 72 -268 378 -663 713 -1086 921 -111 55
-326 145 -346 145 -8 0 -22 4 -32 9 -19 11 -122 42 -192 59 -120 29 -110 27
-180 40 -30 6 -73 13 -95 16 -22 3 -53 8 -70 11 -16 2 -52 7 -80 10 -57 7
-471 16 -476 10z m381 -428 c25 -3 74 -8 110 -12 168 -16 480 -98 635 -165
168 -74 434 -218 443 -242 2 -4 8 -8 13 -8 15 0 162 -113 254 -194 123 -109
209 -200 309 -327 37 -46 73 -91 81 -100 8 -9 15 -21 15 -27 0 -5 3 -12 8 -14
11 -5 52 -66 52 -78 0 -5 5 -10 10 -10 6 0 10 -5 10 -11 0 -6 8 -23 19 -37 10
-15 45 -79 78 -142 52 -101 72 -147 128 -285 32 -79 101 -323 110 -390 3 -16
7 -41 10 -55 3 -14 8 -41 10 -60 3 -19 7 -51 10 -70 19 -130 25 -403 11 -560
-7 -91 -31 -246 -47 -320 -6 -25 -12 -52 -14 -60 -6 -31 -26 -106 -32 -120 -3
-8 -8 -23 -9 -32 -7 -33 -86 -243 -110 -290 -13 -26 -24 -54 -24 -62 0 -8 -4
-16 -9 -18 -4 -1 -18 -23 -29 -48 -92 -196 -274 -447 -467 -644 -146 -147
-364 -315 -538 -412 -134 -75 -376 -183 -447 -199 -8 -2 -44 -13 -80 -25 -36
-12 -76 -24 -90 -27 -14 -2 -50 -10 -80 -18 -30 -7 -73 -16 -94 -19 -21 -4
-48 -9 -60 -11 -54 -13 -273 -29 -391 -28 -103 0 -304 11 -314 18 -3 1 -28 6
-56 9 -56 8 -67 10 -110 19 -16 4 -41 9 -55 11 -25 5 -55 12 -87 21 -10 2 -36
9 -59 14 -50 13 -242 82 -306 111 -26 11 -51 22 -55 23 -5 1 -30 14 -58 29
-27 14 -83 43 -122 64 -40 20 -73 41 -73 46 0 4 -5 8 -10 8 -15 0 -160 98
-255 172 -71 55 -280 258 -350 338 -54 63 -171 223 -222 305 -206 331 -325
669 -378 1070 -20 153 -20 418 0 600 11 101 18 151 23 160 3 5 7 22 9 39 3 30
8 53 18 96 3 14 8 32 10 40 2 8 4 17 5 20 1 3 3 10 4 15 8 52 87 278 130 370
19 41 32 75 29 75 -3 0 -1 6 5 13 5 6 30 51 55 99 48 91 155 261 169 266 4 2
8 8 8 13 0 6 4 15 10 22 5 7 42 53 81 102 92 115 302 322 404 400 44 33 82 62
85 65 23 26 298 189 375 223 22 10 47 22 56 27 103 55 358 138 544 176 58 12
82 16 105 19 14 1 39 5 55 8 17 4 71 9 120 13 50 3 91 7 92 8 5 4 278 -2 323
-7z"/>
<path d="M4118 4015 c-2 -1 -35 -5 -75 -9 -86 -7 -142 -19 -226 -48 -354 -122
-658 -500 -693 -862 -8 -83 -8 -70 0 -171 13 -150 72 -329 143 -436 15 -23 33
-49 38 -58 8 -13 72 -84 111 -125 6 -6 25 -22 43 -36 18 -14 38 -30 44 -35 23
-20 122 -82 157 -97 150 -68 394 -91 568 -52 91 20 252 88 252 106 0 4 5 8 10
8 16 0 52 39 79 85 57 95 -3 262 -105 295 -47 16 -91 8 -202 -35 -50 -19 -108
-38 -129 -41 -21 -3 -41 -8 -44 -10 -11 -6 -171 -6 -214 1 -67 10 -159 44
-211 77 -143 90 -238 275 -225 441 2 29 24 18 63 -32 96 -127 272 -123 438 12
59 47 127 172 134 245 3 20 6 42 7 47 6 20 -11 123 -27 161 -9 21 -32 57 -51
81 -32 39 -41 79 -18 77 6 0 20 5 32 11 39 20 289 8 335 -16 9 -5 24 -9 33 -9
10 0 45 -13 79 -29 65 -32 126 -85 191 -166 22 -27 60 -71 84 -97 83 -89 149
-83 212 19 65 105 0 284 -157 434 -120 114 -293 210 -421 234 -15 2 -39 7 -53
11 -14 3 -54 8 -90 10 -36 3 -75 6 -87 8 -13 2 -24 2 -25 1z"/>
<path d="M1770 4000 c-8 -5 -17 -7 -21 -4 -4 2 -46 -7 -93 -21 -157 -46 -285
-123 -406 -245 -110 -111 -174 -246 -163 -345 9 -82 93 -160 158 -147 27 5 87
60 130 117 52 71 169 181 215 203 45 21 125 45 190 58 19 4 82 8 140 8 164 1
203 -26 140 -98 -124 -141 -95 -389 62 -531 77 -69 168 -106 260 -106 75 1
122 25 182 93 38 44 48 50 56 38 11 -17 6 -91 -11 -154 -30 -113 -124 -243
-215 -299 -39 -24 -109 -51 -156 -61 -13 -3 -34 -7 -48 -11 -44 -10 -173 -7
-245 6 -38 6 -106 28 -150 47 -90 40 -171 50 -216 26 -30 -15 -77 -79 -99
-133 -12 -31 -15 -66 -7 -111 6 -31 51 -97 84 -120 19 -14 40 -30 46 -35 28
-24 178 -81 237 -90 8 -2 33 -6 55 -10 44 -8 195 -9 265 -2 25 3 74 13 110 22
36 10 70 18 75 19 17 3 107 48 150 75 77 48 254 210 255 233 0 4 6 13 13 20
57 60 139 250 162 378 16 84 21 245 10 315 -25 163 -99 323 -219 480 -46 59
-197 205 -212 205 -8 0 -14 4 -14 9 0 5 -12 16 -27 24 -16 8 -54 29 -86 47
-57 32 -192 82 -258 95 -51 11 -333 15 -349 5z"/>
</g>
</svg>
