<?xml version="1.0" encoding="utf-8"?>
<!-- Generator: Adobe Illustrator 26.0.3, SVG Export Plug-In . SVG Version: 6.00 Build 0)  -->
<svg version="1.1" id="Layer_1" xmlns="http://www.w3.org/2000/svg" xmlns:xlink="http://www.w3.org/1999/xlink" x="0px" y="0px"
	 viewBox="0 0 123.7 72.7" style="enable-background:new 0 0 123.7 72.7;" xml:space="preserve">
<g>
	<polygon points="5.2,5.2 5.2,67.5 60.9,36.4 	"/>
	<g>
		<path d="M0,5.2C0,26,0,46.8,0,67.5c0,4,4.4,6.5,7.9,4.5C26.4,61.7,45,51.3,63.5,40.9c3.4-1.9,3.4-7.2,0-9.1
			C45,21.5,26.4,11.1,7.9,0.7C2-2.6-3.3,6.5,2.6,9.8c18.5,10.4,37.1,20.8,55.6,31.1c0-3,0-6,0-9.1C39.7,42.2,21.1,52.6,2.6,63
			c2.6,1.5,5.3,3,7.9,4.5c0-20.8,0-41.5,0-62.3C10.5-1.5,0-1.5,0,5.2z"/>
	</g>
</g>
<g>
	<polygon points="62.9,5.2 62.9,67.5 118.5,36.4 	"/>
	<g>
		<path d="M57.6,5.2c0,20.8,0,41.5,0,62.3c0,4,4.4,6.5,7.9,4.5c18.5-10.4,37.1-20.8,55.6-31.1c3.4-1.9,3.4-7.2,0-9.1
			C102.6,21.5,84,11.1,65.5,0.7c-5.9-3.3-11.2,5.8-5.3,9.1c18.5,10.4,37.1,20.8,55.6,31.1c0-3,0-6,0-9.1
			C97.3,42.2,78.7,52.6,60.2,63c2.6,1.5,5.3,3,7.9,4.5c0-20.8,0-41.5,0-62.3C68.1-1.5,57.6-1.5,57.6,5.2z"/>
	</g>
</g>
</svg>
