<?xml version="1.0" encoding="utf-8"?>
<!-- Generator: Adobe Illustrator 26.0.3, SVG Export Plug-In . SVG Version: 6.00 Build 0)  -->
<svg version="1.1" id="Layer_1" xmlns="http://www.w3.org/2000/svg" xmlns:xlink="http://www.w3.org/1999/xlink" x="0px" y="0px"
	 viewBox="0 0 117.9 167.8" style="enable-background:new 0 0 117.9 167.8;" xml:space="preserve">
<path d="M4,0h35.6c2.2,0,4,1.8,4,4v159.8c0,2.2-1.8,4-4,4H4c-2.2,0-4-1.8-4-4V4C0,1.8,1.8,0,4,0z"/>
<path d="M78.3,0h35.6c2.2,0,4,1.8,4,4v159.8c0,2.2-1.8,4-4,4H78.3c-2.2,0-4-1.8-4-4V4C74.3,1.8,76.1,0,78.3,0z"/>
</svg>
